<svg width="214" height="157" viewBox="0 0 214 157" fill="none" xmlns="http://www.w3.org/2000/svg">
<g filter="url(#filter0_dii_18_491)">
<path d="M157.601 62.1196C158.329 59.0639 158.705 55.939 158.721 52.8026C158.736 42.7809 155.123 33.0727 148.512 25.3745C141.902 17.6764 132.715 12.4779 122.557 10.6876C112.399 8.89728 101.916 10.629 92.9396 15.58C83.9634 20.5311 77.0648 28.3866 73.4497 37.7739C67.3651 35.5635 60.7651 35.0483 54.3948 36.2865C48.0245 37.5246 42.1377 40.4668 37.3989 44.7809C32.6601 49.095 29.2581 54.6092 27.577 60.7009C25.8959 66.7925 26.0027 73.2191 27.8852 79.255C19.3707 81.0281 11.8324 85.7948 6.72031 92.6381C1.60821 99.4814 -0.716571 107.918 0.193166 116.325C1.1029 124.732 5.1829 132.515 11.6483 138.178C18.1137 143.841 26.5079 146.983 35.2161 147H149.899C160.922 147.011 171.549 143.01 179.682 135.788C187.815 128.565 192.863 118.645 193.83 107.986C194.797 97.3276 191.613 86.7041 184.906 78.2127C178.199 69.7214 168.456 63.9792 157.601 62.1196Z" fill="url(#paint0_linear_18_491)" shape-rendering="crispEdges"/>
</g>
<defs>
<filter id="filter0_dii_18_491" x="-10" y="0" width="224" height="157" filterUnits="userSpaceOnUse" color-interpolation-filters="sRGB">
<feFlood flood-opacity="0" result="BackgroundImageFix"/>
<feColorMatrix in="SourceAlpha" type="matrix" values="0 0 0 0 0 0 0 0 0 0 0 0 0 0 0 0 0 0 127 0" result="hardAlpha"/>
<feOffset dx="10"/>
<feGaussianBlur stdDeviation="5"/>
<feComposite in2="hardAlpha" operator="out"/>
<feColorMatrix type="matrix" values="0 0 0 0 0 0 0 0 0 0 0 0 0 0 0 0 0 0 0.25 0"/>
<feBlend mode="overlay" in2="BackgroundImageFix" result="effect1_dropShadow_18_491"/>
<feBlend mode="normal" in="SourceGraphic" in2="effect1_dropShadow_18_491" result="shape"/>
<feColorMatrix in="SourceAlpha" type="matrix" values="0 0 0 0 0 0 0 0 0 0 0 0 0 0 0 0 0 0 127 0" result="hardAlpha"/>
<feOffset dx="10" dy="10"/>
<feGaussianBlur stdDeviation="7.5"/>
<feComposite in2="hardAlpha" operator="arithmetic" k2="-1" k3="1"/>
<feColorMatrix type="matrix" values="0 0 0 0 0 0 0 0 0 0 0 0 0 0 0 0 0 0 0.25 0"/>
<feBlend mode="overlay" in2="shape" result="effect2_innerShadow_18_491"/>
<feColorMatrix in="SourceAlpha" type="matrix" values="0 0 0 0 0 0 0 0 0 0 0 0 0 0 0 0 0 0 127 0" result="hardAlpha"/>
<feOffset dx="-10" dy="-10"/>
<feGaussianBlur stdDeviation="5"/>
<feComposite in2="hardAlpha" operator="arithmetic" k2="-1" k3="1"/>
<feColorMatrix type="matrix" values="0 0 0 0 0 0 0 0 0 0 0 0 0 0 0 0 0 0 0.25 0"/>
<feBlend mode="overlay" in2="effect2_innerShadow_18_491" result="effect3_innerShadow_18_491"/>
</filter>
<linearGradient id="paint0_linear_18_491" x1="97" y1="10" x2="97" y2="147" gradientUnits="userSpaceOnUse">
<stop offset="0.187494" stop-color="#E4DEE4"/>
<stop offset="1" stop-color="white" stop-opacity="0"/>
</linearGradient>
</defs>
</svg>
