<svg width="33" height="34" viewBox="0 0 33 34" fill="none" xmlns="http://www.w3.org/2000/svg">
<path d="M16.3452 33.4518C12.0102 33.4518 7.85271 31.7297 4.78739 28.6644C1.72208 25.5991 0 21.4416 0 17.1066C0 12.7716 1.72208 8.61412 4.78739 5.54881C7.85271 2.48349 12.0102 0.761414 16.3452 0.761414C20.6802 0.761414 24.8377 2.48349 27.903 5.54881C30.9683 8.61412 32.6904 12.7716 32.6904 17.1066C32.6904 21.4416 30.9683 25.5991 27.903 28.6644C24.8377 31.7297 20.6802 33.4518 16.3452 33.4518ZM19.6142 12.203C19.6142 12.6607 19.271 13.5107 18.9277 13.8376L16.3452 16.4201C15.4135 17.3681 14.7107 19.0353 14.7107 20.3756V22.0101H17.9797V20.3756C17.9797 19.9016 18.3229 19.068 18.6662 18.7411L21.2487 16.1586C22.1804 15.2106 22.8833 13.5433 22.8833 12.203C22.8833 10.469 22.1944 8.80605 20.9683 7.57992C19.7422 6.3538 18.0792 5.66497 16.3452 5.66497C14.6112 5.66497 12.9482 6.3538 11.7221 7.57992C10.4959 8.80605 9.80711 10.469 9.80711 12.203H13.0761C13.0761 11.336 13.4206 10.5045 14.0336 9.89148C14.6467 9.27842 15.4782 8.934 16.3452 8.934C17.2122 8.934 18.0437 9.27842 18.6567 9.89148C19.2698 10.5045 19.6142 11.336 19.6142 12.203ZM14.7107 25.2792V28.5482H17.9797V25.2792H14.7107Z" fill="url(#paint0_linear_14_188)"/>
<defs>
<linearGradient id="paint0_linear_14_188" x1="16.3452" y1="0.761414" x2="16.3452" y2="33.4518" gradientUnits="userSpaceOnUse">
<stop offset="0.28125" stop-color="#AD1D6A"/>
<stop offset="0.765625" stop-color="#BB0667" stop-opacity="0.96"/>
</linearGradient>
</defs>
</svg>
