<svg width="22" height="22" viewBox="0 0 22 22" fill="none" xmlns="http://www.w3.org/2000/svg">
<path d="M18.7 16.2105C18.4083 16.2105 18.1285 16.0885 17.9222 15.8714C17.7159 15.6542 17.6 15.3597 17.6 15.0526C17.6 14.7455 17.7159 14.451 17.9222 14.2339C18.1285 14.0167 18.4083 13.8947 18.7 13.8947C18.9917 13.8947 19.2715 13.7727 19.4778 13.5556C19.6841 13.3385 19.8 13.0439 19.8 12.7368V3.47368C19.8 3.16659 19.6841 2.87208 19.4778 2.65493C19.2715 2.43778 18.9917 2.31579 18.7 2.31579H3.3C3.00826 2.31579 2.72847 2.43778 2.52218 2.65493C2.31589 2.87208 2.2 3.16659 2.2 3.47368V12.7368C2.2 13.0439 2.31589 13.3385 2.52218 13.5556C2.72847 13.7727 3.00826 13.8947 3.3 13.8947H14.3C14.5917 13.8947 14.8715 14.0167 15.0778 14.2339C15.2841 14.451 15.4 14.7455 15.4 15.0526C15.4 15.3597 15.2841 15.6542 15.0778 15.8714C14.8715 16.0885 14.5917 16.2105 14.3 16.2105H3.3C2.42479 16.2105 1.58542 15.8446 0.966548 15.1931C0.347678 14.5417 0 13.6581 0 12.7368V3.47368C0 2.55241 0.347678 1.66886 0.966548 1.01742C1.58542 0.365977 2.42479 0 3.3 0H18.7C19.5752 0 20.4146 0.365977 21.0335 1.01742C21.6523 1.66886 22 2.55241 22 3.47368V12.7368C22 13.6581 21.6523 14.5417 21.0335 15.1931C20.4146 15.8446 19.5752 16.2105 18.7 16.2105Z" fill="url(#paint0_linear_10_198)"/>
<path d="M15.719 6.61159C15.518 6.3897 15.4041 6.09606 15.4 5.78949C15.4041 5.48291 15.518 5.18927 15.719 4.96738C15.9298 4.75579 16.2088 4.63586 16.5 4.63159C16.7913 4.63586 17.0702 4.75579 17.281 4.96738C17.482 5.18927 17.596 5.48291 17.6 5.78949C17.596 6.09606 17.482 6.3897 17.281 6.61159C17.0702 6.82318 16.7913 6.94312 16.5 6.94738C16.2088 6.94312 15.9298 6.82318 15.719 6.61159Z" fill="url(#paint1_linear_10_198)"/>
<path d="M16.5 11.579H5.50001C5.20827 11.579 4.92848 11.457 4.72219 11.2398C4.5159 11.0227 4.40001 10.7282 4.40001 10.4211C4.40001 10.114 4.5159 9.81947 4.72219 9.60232C4.92848 9.38518 5.20827 9.26318 5.50001 9.26318H16.5C16.7917 9.26318 17.0715 9.38518 17.2778 9.60232C17.4841 9.81947 17.6 10.114 17.6 10.4211C17.6 10.7282 17.4841 11.0227 17.2778 11.2398C17.0715 11.457 16.7917 11.579 16.5 11.579Z" fill="url(#paint2_linear_10_198)"/>
<path d="M6.6 22C6.30826 22 6.02847 21.878 5.82218 21.6608C5.61589 21.4437 5.5 21.1492 5.5 20.8421V18.5263C5.5 18.2192 5.61589 17.9247 5.82218 17.7075C6.02847 17.4904 6.30826 17.3684 6.6 17.3684C6.89174 17.3684 7.17153 17.4904 7.37782 17.7075C7.58411 17.9247 7.7 18.2192 7.7 18.5263V20.8421C7.7 21.1492 7.58411 21.4437 7.37782 21.6608C7.17153 21.878 6.89174 22 6.6 22Z" fill="url(#paint3_linear_10_198)"/>
<path d="M11 22C10.7083 22 10.4285 21.878 10.2222 21.6608C10.0159 21.4437 9.90001 21.1492 9.90001 20.8421V18.5263C9.90001 18.2192 10.0159 17.9247 10.2222 17.7075C10.4285 17.4904 10.7083 17.3684 11 17.3684C11.2917 17.3684 11.5715 17.4904 11.7778 17.7075C11.9841 17.9247 12.1 18.2192 12.1 18.5263V20.8421C12.1 21.1492 11.9841 21.4437 11.7778 21.6608C11.5715 21.878 11.2917 22 11 22Z" fill="url(#paint4_linear_10_198)"/>
<path d="M15.4 22C15.1083 22 14.8285 21.878 14.6222 21.6608C14.4159 21.4437 14.3 21.1492 14.3 20.8421V18.5263C14.3 18.2192 14.4159 17.9247 14.6222 17.7075C14.8285 17.4904 15.1083 17.3684 15.4 17.3684C15.6918 17.3684 15.9715 17.4904 16.1778 17.7075C16.3841 17.9247 16.5 18.2192 16.5 18.5263V20.8421C16.5 21.1492 16.3841 21.4437 16.1778 21.6608C15.9715 21.878 15.6918 22 15.4 22Z" fill="url(#paint5_linear_10_198)"/>
<defs>
<linearGradient id="paint0_linear_10_198" x1="11" y1="0" x2="11" y2="16.2105" gradientUnits="userSpaceOnUse">
<stop offset="0.208333" stop-color="#CF1E7C"/>
<stop offset="0.442708" stop-color="#F634D7" stop-opacity="0"/>
<stop offset="1" stop-color="#D01277" stop-opacity="0.7"/>
</linearGradient>
<linearGradient id="paint1_linear_10_198" x1="16.5" y1="4.63159" x2="16.5" y2="6.94738" gradientUnits="userSpaceOnUse">
<stop offset="0.208333" stop-color="#CF1E7C"/>
<stop offset="0.442708" stop-color="#F634D7" stop-opacity="0"/>
<stop offset="1" stop-color="#D01277" stop-opacity="0.7"/>
</linearGradient>
<linearGradient id="paint2_linear_10_198" x1="11" y1="9.26318" x2="11" y2="11.579" gradientUnits="userSpaceOnUse">
<stop offset="0.208333" stop-color="#CF1E7C"/>
<stop offset="0.442708" stop-color="#F634D7" stop-opacity="0"/>
<stop offset="1" stop-color="#D01277" stop-opacity="0.7"/>
</linearGradient>
<linearGradient id="paint3_linear_10_198" x1="6.6" y1="17.3684" x2="6.6" y2="22" gradientUnits="userSpaceOnUse">
<stop offset="0.208333" stop-color="#CF1E7C"/>
<stop offset="0.442708" stop-color="#F634D7" stop-opacity="0"/>
<stop offset="1" stop-color="#D01277" stop-opacity="0.7"/>
</linearGradient>
<linearGradient id="paint4_linear_10_198" x1="11" y1="17.3684" x2="11" y2="22" gradientUnits="userSpaceOnUse">
<stop offset="0.208333" stop-color="#CF1E7C"/>
<stop offset="0.442708" stop-color="#F634D7" stop-opacity="0"/>
<stop offset="1" stop-color="#D01277" stop-opacity="0.7"/>
</linearGradient>
<linearGradient id="paint5_linear_10_198" x1="15.4" y1="17.3684" x2="15.4" y2="22" gradientUnits="userSpaceOnUse">
<stop offset="0.208333" stop-color="#CF1E7C"/>
<stop offset="0.442708" stop-color="#F634D7" stop-opacity="0"/>
<stop offset="1" stop-color="#D01277" stop-opacity="0.7"/>
</linearGradient>
</defs>
</svg>
