<svg width="21" height="21" viewBox="0 0 21 21" fill="none" xmlns="http://www.w3.org/2000/svg">
<path d="M10.5 10.8516C10.9688 10.8516 11.291 10.5098 11.291 10.0215V1.25195C11.291 0.753906 10.9688 0.421875 10.5 0.421875C10.0312 0.421875 9.71875 0.753906 9.71875 1.25195V10.0215C9.71875 10.5098 10.0312 10.8516 10.5 10.8516ZM10.5 20.9102C15.9492 20.9102 20.4609 16.3887 20.4609 10.9492C20.4609 7.95117 19.0938 5.35352 17.2188 3.64453C16.3594 2.86328 15.2559 4.02539 16.1055 4.83594C17.7656 6.34961 18.791 8.51758 18.8008 10.9492C18.8105 15.5586 15.1094 19.25 10.5 19.25C5.89062 19.25 2.20898 15.5586 2.20898 10.9492C2.21875 8.49805 3.24414 6.33984 4.89453 4.82617C5.75391 4.00586 4.64062 2.85352 3.78125 3.63477C1.89648 5.34375 0.539062 7.95117 0.539062 10.9492C0.539062 16.3887 5.06055 20.9102 10.5 20.9102Z" fill="url(#paint0_linear_12_328)"/>
<defs>
<linearGradient id="paint0_linear_12_328" x1="10.5" y1="-1" x2="10.5" y2="23" gradientUnits="userSpaceOnUse">
<stop stop-color="#A0176D"/>
<stop offset="0.49074" stop-color="#D8036E"/>
<stop offset="1" stop-color="#DA68A5"/>
</linearGradient>
</defs>
</svg>
