<svg width="22" height="22" viewBox="0 0 22 22" fill="none" xmlns="http://www.w3.org/2000/svg">
<path d="M3.0863 8.12687V13.2742C3.0863 15.1654 3.0863 15.1654 4.87048 16.3697L9.77695 19.2066C10.5174 19.6348 11.7217 19.6348 12.4532 19.2066L17.3597 16.3697C19.1439 15.1654 19.1439 15.1654 19.1439 13.2831V8.12687C19.1439 6.24456 19.1439 6.24457 17.3597 5.04025L12.4532 2.20341C11.7217 1.77521 10.5174 1.77521 9.77695 2.20341L4.87048 5.04025C3.0863 6.24457 3.0863 6.24456 3.0863 8.12687Z" stroke="#58606A" stroke-width="1.78417" stroke-linecap="round" stroke-linejoin="round"/>
<path d="M11.1151 13.3813C12.5931 13.3813 13.7913 12.1831 13.7913 10.7051C13.7913 9.22701 12.5931 8.02881 11.1151 8.02881C9.63701 8.02881 8.43881 9.22701 8.43881 10.7051C8.43881 12.1831 9.63701 13.3813 11.1151 13.3813Z" stroke="#58606A" stroke-width="1.78417" stroke-linecap="round" stroke-linejoin="round"/>
</svg>
